<mxfile host="app.diagrams.net" modified="2021-01-13T22:06:26.405Z" agent="5.0 (Windows NT 10.0; Win64; x64) AppleWebKit/537.36 (KHTML, like Gecko) Chrome/87.0.4280.141 Safari/537.36" etag="ncn4VO8_Hk-7h55SlYdm" version="14.2.2" type="github">
  <diagram name="Page-1" id="2c0d36ab-eaac-3732-788b-9136903baeff">
    <mxGraphModel dx="723" dy="328" grid="1" gridSize="10" guides="1" tooltips="1" connect="1" arrows="1" fold="1" page="1" pageScale="1.5" pageWidth="1169" pageHeight="827" background="#ffffff" math="0" shadow="0">
      <root>
        <mxCell id="0" />
        <mxCell id="1" parent="0" />
        <mxCell id="2" value="משתמש נכנס למערכת" style="rounded=1;fillColor=#23445D;gradientColor=none;strokeColor=none;fontColor=#FFFFFF;fontStyle=1;fontFamily=Tahoma;fontSize=14" parent="1" vertex="1">
          <mxGeometry x="1080" y="210" width="190" height="80" as="geometry" />
        </mxCell>
        <mxCell id="4" value="עובד נכנס עם ססמא" style="rounded=1;fillColor=#23445D;gradientColor=none;strokeColor=none;fontColor=#FFFFFF;fontStyle=1;fontFamily=Tahoma;fontSize=14" parent="1" vertex="1">
          <mxGeometry x="1346.9999999999998" y="335.5" width="190" height="80" as="geometry" />
        </mxCell>
        <mxCell id="9" value="" style="edgeStyle=elbowEdgeStyle;elbow=vertical;strokeWidth=2;rounded=0" parent="1" source="2" target="4" edge="1">
          <mxGeometry x="337" y="215.5" width="100" height="100" as="geometry">
            <mxPoint x="337" y="315.5" as="sourcePoint" />
            <mxPoint x="437" y="215.5" as="targetPoint" />
          </mxGeometry>
        </mxCell>
        <mxCell id="10" value="מנהל נכנס עם ססמא" style="rounded=1;fillColor=#23445D;gradientColor=none;strokeColor=none;fontColor=#FFFFFF;fontStyle=1;fontFamily=Tahoma;fontSize=14" parent="1" vertex="1">
          <mxGeometry x="740" y="335.5" width="190" height="80" as="geometry" />
        </mxCell>
        <mxCell id="59" value="" style="edgeStyle=elbowEdgeStyle;elbow=vertical;strokeWidth=2;rounded=0;entryX=0.5;entryY=0;entryDx=0;entryDy=0;" parent="1" source="2" target="10" edge="1">
          <mxGeometry x="347" y="225.5" width="100" height="100" as="geometry">
            <mxPoint x="861.9999999999999" y="275.5" as="sourcePoint" />
            <mxPoint x="656.9999999999995" y="335.5" as="targetPoint" />
          </mxGeometry>
        </mxCell>
        <mxCell id="103" value="" style="edgeStyle=elbowEdgeStyle;elbow=vertical;strokeWidth=2;rounded=0;entryX=0.414;entryY=-0.031;entryDx=0;entryDy=0;entryPerimeter=0;" parent="1" source="10" target="m5cj2oNC6-9tfZDsCWIE-123" edge="1">
          <mxGeometry x="-23" y="135.5" width="100" height="100" as="geometry">
            <mxPoint x="-23" y="235.5" as="sourcePoint" />
            <mxPoint x="1160" y="470" as="targetPoint" />
            <Array as="points">
              <mxPoint x="1130" y="456" />
            </Array>
          </mxGeometry>
        </mxCell>
        <mxCell id="105" value="" style="edgeStyle=elbowEdgeStyle;elbow=vertical;strokeWidth=2;rounded=0;entryX=0.559;entryY=-0.062;entryDx=0;entryDy=0;entryPerimeter=0;" parent="1" source="4" target="m5cj2oNC6-9tfZDsCWIE-123" edge="1">
          <mxGeometry x="-23" y="135.5" width="100" height="100" as="geometry">
            <mxPoint x="-23" y="235.5" as="sourcePoint" />
            <mxPoint x="1282" y="455.5" as="targetPoint" />
            <Array as="points">
              <mxPoint x="1180" y="456" />
              <mxPoint x="1170" y="436" />
            </Array>
          </mxGeometry>
        </mxCell>
        <mxCell id="m5cj2oNC6-9tfZDsCWIE-161" value="" style="edgeStyle=orthogonalEdgeStyle;rounded=0;orthogonalLoop=1;jettySize=auto;html=1;exitX=0.971;exitY=0.994;exitDx=0;exitDy=0;exitPerimeter=0;" edge="1" parent="1" source="m5cj2oNC6-9tfZDsCWIE-123">
          <mxGeometry relative="1" as="geometry">
            <mxPoint x="1320" y="580" as="targetPoint" />
            <Array as="points">
              <mxPoint x="1320" y="560" />
            </Array>
          </mxGeometry>
        </mxCell>
        <mxCell id="m5cj2oNC6-9tfZDsCWIE-164" value="" style="edgeStyle=orthogonalEdgeStyle;rounded=0;orthogonalLoop=1;jettySize=auto;html=1;exitX=0.085;exitY=0.994;exitDx=0;exitDy=0;exitPerimeter=0;entryX=0.25;entryY=0;entryDx=0;entryDy=0;" edge="1" parent="1" source="m5cj2oNC6-9tfZDsCWIE-123" target="m5cj2oNC6-9tfZDsCWIE-158">
          <mxGeometry relative="1" as="geometry">
            <mxPoint x="1040" y="570" as="targetPoint" />
            <Array as="points">
              <mxPoint x="1040" y="560" />
            </Array>
          </mxGeometry>
        </mxCell>
        <mxCell id="m5cj2oNC6-9tfZDsCWIE-123" value="נכנס לכרטיס הזמנה" style="rounded=1;fillColor=#23445D;gradientColor=none;strokeColor=none;fontColor=#FFFFFF;fontStyle=1;fontFamily=Tahoma;fontSize=14" vertex="1" parent="1">
          <mxGeometry x="1079.9999999999998" y="480" width="190" height="80" as="geometry" />
        </mxCell>
        <mxCell id="m5cj2oNC6-9tfZDsCWIE-131" value="" style="edgeStyle=orthogonalEdgeStyle;rounded=0;orthogonalLoop=1;jettySize=auto;html=1;" edge="1" parent="1" source="m5cj2oNC6-9tfZDsCWIE-126" target="m5cj2oNC6-9tfZDsCWIE-130">
          <mxGeometry relative="1" as="geometry" />
        </mxCell>
        <mxCell id="m5cj2oNC6-9tfZDsCWIE-137" value="" style="edgeStyle=orthogonalEdgeStyle;rounded=0;orthogonalLoop=1;jettySize=auto;html=1;" edge="1" parent="1" source="m5cj2oNC6-9tfZDsCWIE-126" target="m5cj2oNC6-9tfZDsCWIE-136">
          <mxGeometry relative="1" as="geometry" />
        </mxCell>
        <mxCell id="m5cj2oNC6-9tfZDsCWIE-126" value="בוחר הזמנה" style="whiteSpace=wrap;html=1;rounded=1;fontFamily=Tahoma;fontSize=14;fontColor=#FFFFFF;fontStyle=1;strokeColor=none;fillColor=#23445D;" vertex="1" parent="1">
          <mxGeometry x="1114.9999999999998" y="650" width="120" height="60" as="geometry" />
        </mxCell>
        <mxCell id="m5cj2oNC6-9tfZDsCWIE-135" value="" style="edgeStyle=orthogonalEdgeStyle;rounded=0;orthogonalLoop=1;jettySize=auto;html=1;entryX=0.458;entryY=0;entryDx=0;entryDy=0;entryPerimeter=0;" edge="1" parent="1" target="m5cj2oNC6-9tfZDsCWIE-132">
          <mxGeometry relative="1" as="geometry">
            <mxPoint x="904.9599999999998" y="550" as="sourcePoint" />
            <mxPoint x="904.9999999999998" y="630" as="targetPoint" />
          </mxGeometry>
        </mxCell>
        <mxCell id="m5cj2oNC6-9tfZDsCWIE-133" value="" style="edgeStyle=orthogonalEdgeStyle;rounded=0;orthogonalLoop=1;jettySize=auto;html=1;" edge="1" parent="1" source="m5cj2oNC6-9tfZDsCWIE-130" target="m5cj2oNC6-9tfZDsCWIE-132">
          <mxGeometry relative="1" as="geometry" />
        </mxCell>
        <mxCell id="m5cj2oNC6-9tfZDsCWIE-130" value="עורך פרטי לקוח" style="whiteSpace=wrap;html=1;rounded=1;fontFamily=Tahoma;fontSize=14;fontColor=#FFFFFF;fontStyle=1;strokeColor=none;fillColor=#23445D;" vertex="1" parent="1">
          <mxGeometry x="1114.9999999999998" y="790" width="120" height="60" as="geometry" />
        </mxCell>
        <mxCell id="m5cj2oNC6-9tfZDsCWIE-132" value="שומר לקוח" style="whiteSpace=wrap;html=1;rounded=1;fontFamily=Tahoma;fontSize=14;fontColor=#FFFFFF;fontStyle=1;strokeColor=none;fillColor=#23445D;" vertex="1" parent="1">
          <mxGeometry x="849.9999999999998" y="610" width="120" height="60" as="geometry" />
        </mxCell>
        <mxCell id="m5cj2oNC6-9tfZDsCWIE-139" value="" style="edgeStyle=orthogonalEdgeStyle;rounded=0;orthogonalLoop=1;jettySize=auto;html=1;" edge="1" parent="1" source="m5cj2oNC6-9tfZDsCWIE-136" target="m5cj2oNC6-9tfZDsCWIE-138">
          <mxGeometry relative="1" as="geometry" />
        </mxCell>
        <mxCell id="m5cj2oNC6-9tfZDsCWIE-143" value="" style="edgeStyle=orthogonalEdgeStyle;rounded=0;orthogonalLoop=1;jettySize=auto;html=1;" edge="1" parent="1" source="m5cj2oNC6-9tfZDsCWIE-136" target="m5cj2oNC6-9tfZDsCWIE-142">
          <mxGeometry relative="1" as="geometry" />
        </mxCell>
        <mxCell id="m5cj2oNC6-9tfZDsCWIE-136" value="צופה בפניות לקוח" style="whiteSpace=wrap;html=1;rounded=1;fontFamily=Tahoma;fontSize=14;fontColor=#FFFFFF;fontStyle=1;strokeColor=none;fillColor=#23445D;" vertex="1" parent="1">
          <mxGeometry x="1314.9999999999998" y="650" width="120" height="60" as="geometry" />
        </mxCell>
        <mxCell id="m5cj2oNC6-9tfZDsCWIE-145" value="" style="edgeStyle=orthogonalEdgeStyle;rounded=0;orthogonalLoop=1;jettySize=auto;html=1;" edge="1" parent="1" source="m5cj2oNC6-9tfZDsCWIE-138" target="m5cj2oNC6-9tfZDsCWIE-144">
          <mxGeometry relative="1" as="geometry" />
        </mxCell>
        <mxCell id="m5cj2oNC6-9tfZDsCWIE-138" value="עורך פנית לקוח" style="whiteSpace=wrap;html=1;rounded=1;fontFamily=Tahoma;fontSize=14;fontColor=#FFFFFF;fontStyle=1;strokeColor=none;fillColor=#23445D;" vertex="1" parent="1">
          <mxGeometry x="1314.9999999999998" y="790" width="120" height="60" as="geometry" />
        </mxCell>
        <mxCell id="m5cj2oNC6-9tfZDsCWIE-146" value="" style="edgeStyle=orthogonalEdgeStyle;rounded=0;orthogonalLoop=1;jettySize=auto;html=1;" edge="1" parent="1" source="m5cj2oNC6-9tfZDsCWIE-142" target="m5cj2oNC6-9tfZDsCWIE-144">
          <mxGeometry relative="1" as="geometry" />
        </mxCell>
        <mxCell id="m5cj2oNC6-9tfZDsCWIE-142" value="מוסיף פניה ללקוח" style="whiteSpace=wrap;html=1;rounded=1;fontFamily=Tahoma;fontSize=14;fontColor=#FFFFFF;fontStyle=1;strokeColor=none;fillColor=#23445D;" vertex="1" parent="1">
          <mxGeometry x="1514.9999999999998" y="650" width="120" height="60" as="geometry" />
        </mxCell>
        <mxCell id="m5cj2oNC6-9tfZDsCWIE-144" value="שומר פניה&amp;nbsp;" style="whiteSpace=wrap;html=1;rounded=1;fontFamily=Tahoma;fontSize=14;fontColor=#FFFFFF;fontStyle=1;strokeColor=none;fillColor=#23445D;" vertex="1" parent="1">
          <mxGeometry x="1514.9999999999998" y="790" width="120" height="60" as="geometry" />
        </mxCell>
        <mxCell id="m5cj2oNC6-9tfZDsCWIE-150" value="&lt;font style=&quot;font-size: 10px&quot;&gt;מסנן לפי תאריך&lt;/font&gt;" style="whiteSpace=wrap;html=1;rounded=1;fontFamily=Tahoma;fontSize=14;fontColor=#FFFFFF;fontStyle=1;strokeColor=none;fillColor=#23445D;" vertex="1" parent="1">
          <mxGeometry x="1105" y="580" width="80" height="40" as="geometry" />
        </mxCell>
        <mxCell id="m5cj2oNC6-9tfZDsCWIE-151" value="&lt;font style=&quot;font-size: 9px&quot;&gt;מסנן לפי מספר הזמנה&lt;/font&gt;" style="whiteSpace=wrap;html=1;rounded=1;fontFamily=Tahoma;fontSize=14;fontColor=#FFFFFF;fontStyle=1;strokeColor=none;fillColor=#23445D;" vertex="1" parent="1">
          <mxGeometry x="1190" y="580.25" width="80" height="40" as="geometry" />
        </mxCell>
        <mxCell id="m5cj2oNC6-9tfZDsCWIE-155" value="" style="edgeStyle=orthogonalEdgeStyle;rounded=0;orthogonalLoop=1;jettySize=auto;html=1;" edge="1" parent="1">
          <mxGeometry relative="1" as="geometry">
            <mxPoint x="1235" y="560" as="sourcePoint" />
            <mxPoint x="1235" y="580" as="targetPoint" />
            <Array as="points">
              <mxPoint x="1235" y="570" />
              <mxPoint x="1235" y="570" />
            </Array>
          </mxGeometry>
        </mxCell>
        <mxCell id="m5cj2oNC6-9tfZDsCWIE-158" value="&lt;font style=&quot;font-size: 10px&quot;&gt;מסנן לפי לקוח&lt;/font&gt;" style="whiteSpace=wrap;html=1;rounded=1;fontFamily=Tahoma;fontSize=14;fontColor=#FFFFFF;fontStyle=1;strokeColor=none;fillColor=#23445D;" vertex="1" parent="1">
          <mxGeometry x="1020" y="580" width="80" height="40" as="geometry" />
        </mxCell>
        <mxCell id="m5cj2oNC6-9tfZDsCWIE-162" value="&lt;font style=&quot;font-size: 9px&quot;&gt;מסנן לפי מספר&amp;nbsp; סטוס&lt;/font&gt;" style="whiteSpace=wrap;html=1;rounded=1;fontFamily=Tahoma;fontSize=14;fontColor=#FFFFFF;fontStyle=1;strokeColor=none;fillColor=#23445D;" vertex="1" parent="1">
          <mxGeometry x="1280" y="580" width="80" height="40" as="geometry" />
        </mxCell>
        <mxCell id="m5cj2oNC6-9tfZDsCWIE-168" value="" style="edgeStyle=orthogonalEdgeStyle;rounded=0;orthogonalLoop=1;jettySize=auto;html=1;entryX=0.5;entryY=0;entryDx=0;entryDy=0;" edge="1" parent="1" target="m5cj2oNC6-9tfZDsCWIE-150">
          <mxGeometry relative="1" as="geometry">
            <mxPoint x="1145" y="560" as="sourcePoint" />
            <mxPoint x="1385" y="520" as="targetPoint" />
          </mxGeometry>
        </mxCell>
      </root>
    </mxGraphModel>
  </diagram>
</mxfile>
